<svg width="25" height="25" viewBox="0 0 25 25" fill="none" xmlns="http://www.w3.org/2000/svg">
<path fill-rule="evenodd" clip-rule="evenodd" d="M0.125 0.998189C0.125 0.445819 0.568238 -0.00196838 1.115 -0.00196838H4.085C4.63176 -0.00196838 5.075 0.445819 5.075 0.998189V19.001C5.075 19.5534 5.51824 20.0012 6.065 20.0012H18.935C19.4818 20.0012 19.925 19.5534 19.925 19.001V16.0006C19.925 15.4482 19.4818 15.0004 18.935 15.0004H12.995C11.3547 15.0004 10.025 13.6571 10.025 11.9999V2.99851C10.025 1.34139 11.3547 -0.00196838 12.995 -0.00196838H21.905C23.5453 -0.00196838 24.875 1.34139 24.875 2.99851V22.0015C24.875 23.6586 23.5453 25.002 21.905 25.002H3.095C1.45471 25.002 0.125 23.6586 0.125 22.0015V0.998189ZM19.925 5.99898C19.925 5.44661 19.4818 4.99882 18.935 4.99882H14.975V8.99945C14.975 9.55178 15.4182 9.99958 15.965 9.99958H19.925V5.99898Z" fill="url(#paint0_linear_1_6)"/>
<defs>
<linearGradient id="paint0_linear_1_6" x1="0.124998" y1="37.2539" x2="26.3781" y2="-5.89104" gradientUnits="userSpaceOnUse">
<stop stop-color="#213F7D"/>
<stop offset="1" stop-color="#39CDCC"/>
</linearGradient>
</defs>
</svg>
